<svg width="24" height="26" viewBox="0 0 24 26" fill="none" xmlns="http://www.w3.org/2000/svg">
<path d="M2.91043 14.932L11.7364 24.2225C11.8601 24.3527 11.9219 24.4178 12 24.4178C12.0781 24.4178 12.1399 24.3527 12.2636 24.2225L21.0896 14.932C21.815 14.1685 22.1777 13.7867 22.4143 13.3777C22.9935 12.3769 23.1113 11.1744 22.7372 10.0802C22.5843 9.63315 22.3026 9.18826 21.7391 8.29851L21.739 8.29849C20.6097 6.51535 20.0451 5.62378 19.4445 5.17948C17.9506 4.07418 15.8921 4.1434 14.4758 5.34656C13.9065 5.8302 13.403 6.75768 12.396 8.61266L12.1871 8.99742L12.1871 8.99743C12.1393 9.08544 12.1154 9.12945 12.0876 9.1495C12.0352 9.1871 11.9648 9.1871 11.9124 9.1495C11.8846 9.12945 11.8607 9.08544 11.8129 8.99743L11.8129 8.99742L11.604 8.61266L11.604 8.61265C10.597 6.75768 10.0935 5.8302 9.52421 5.34656C8.10787 4.1434 6.04943 4.07418 4.55547 5.17948C3.95494 5.62378 3.39028 6.51535 2.26096 8.29848L2.26096 8.29849C1.69744 9.18826 1.41568 9.63314 1.26283 10.0802C0.888749 11.1744 1.00649 12.3769 1.58569 13.3777C1.82234 13.7867 2.18503 14.1685 2.91042 14.932L2.91043 14.932Z" stroke="#F9F9F9" stroke-width="2"/>
</svg>
