<svg width="32" height="33" viewBox="0 0 32 33" fill="none" xmlns="http://www.w3.org/2000/svg">
<path d="M12 21.8333H8.33664C7.40169 21.8333 6.93421 21.8333 6.56564 21.9865C6.07748 22.1895 5.68953 22.5774 5.4866 23.0656C5.33337 23.4342 5.33337 23.9016 5.33337 24.8366V24.8366C5.33337 25.953 5.33337 26.5113 5.52686 26.9186C5.7831 27.458 6.26696 27.8546 6.84613 28.0001C7.28345 28.11 7.83085 28.0005 8.92563 27.7815L9.32043 27.7026C10.3396 27.4987 10.8492 27.3968 11.2187 27.1129C11.4617 26.9261 11.6586 26.686 11.7941 26.411C12 25.993 12 25.4733 12 24.434V11.7792C12 10.2094 12 9.42457 12.4534 8.87161C12.9067 8.31865 13.6763 8.16473 15.2156 7.85687L20.5489 6.79021C22.7625 6.34748 23.8693 6.12612 24.6014 6.72624C25.3334 7.32635 25.3334 8.45508 25.3334 10.7125V12.5M25.3334 19.1666V21.7673C25.3334 22.8067 25.3334 23.3263 25.1274 23.7443C24.9919 24.0193 24.7951 24.2594 24.552 24.4462C24.1825 24.7301 23.6729 24.8321 22.6538 25.0359L22.259 25.1149C21.1642 25.3338 20.6168 25.4433 20.1795 25.3334C19.6003 25.188 19.1164 24.7913 18.8602 24.2519C18.6667 23.8446 18.6667 23.2864 18.6667 22.1699V22.1699C18.6667 21.235 18.6667 20.7675 18.8199 20.3989C19.0229 19.9108 19.4108 19.5228 19.899 19.3199C20.2675 19.1666 20.735 19.1666 21.67 19.1666H25.3334ZM25.3334 19.1666V12.5M25.3334 12.5L12 15.1666" stroke="#F9F9F9" stroke-width="3"/>
</svg>
