<svg width="24" height="25" viewBox="0 0 24 25" fill="none" xmlns="http://www.w3.org/2000/svg">
<path d="M12.6318 2.5C13.0675 2.5 13.2858 2.50028 13.4629 2.57031C13.6878 2.65934 13.8726 2.82699 13.9834 3.04199C14.0707 3.21127 14.0925 3.42789 14.1357 3.86133C14.2177 4.68213 14.2589 5.09316 14.4307 5.31836C14.6486 5.60394 15.0033 5.751 15.3594 5.70312C15.64 5.66528 15.9591 5.40323 16.5977 4.88086C16.9353 4.60467 17.1045 4.46713 17.2861 4.40918C17.5165 4.3357 17.7655 4.34826 17.9873 4.44434C18.1622 4.5201 18.3167 4.67412 18.625 4.98242L19.5176 5.875C19.8258 6.18323 19.9799 6.33787 20.0557 6.5127C20.1517 6.73455 20.1643 6.98357 20.0908 7.21387C20.0328 7.39534 19.8942 7.5641 19.6182 7.90137C19.0958 8.53946 18.8349 8.85905 18.7969 9.13965C18.7489 9.49576 18.896 9.85039 19.1816 10.0684C19.4068 10.2401 19.8176 10.2811 20.6387 10.3633C21.0724 10.4067 21.2897 10.4292 21.459 10.5166C21.6737 10.6275 21.8408 10.8124 21.9297 11.0371C21.9998 11.2143 22 11.4323 22 11.8682V13.1318C22 13.5675 21.9997 13.7858 21.9297 13.9629C21.8407 14.1878 21.673 14.3726 21.458 14.4834C21.2887 14.5706 21.0721 14.5925 20.6387 14.6357C19.8181 14.7177 19.4078 14.759 19.1826 14.9307C18.8967 15.1486 18.7498 15.5031 18.7979 15.8594C18.8357 16.1399 19.0969 16.4594 19.6191 17.0977C19.8947 17.4345 20.0328 17.603 20.0908 17.7842C20.1645 18.0146 20.1518 18.2643 20.0557 18.4863C19.9799 18.6611 19.8257 18.816 19.5176 19.124L18.625 20.0166C18.3167 20.3249 18.1622 20.4789 17.9873 20.5547C17.7654 20.6508 17.5165 20.6633 17.2861 20.5898C17.1045 20.5319 16.9352 20.3943 16.5977 20.1182C15.9588 19.5956 15.6392 19.3336 15.3584 19.2959C15.0026 19.2483 14.6484 19.3953 14.4307 19.6807C14.2588 19.9059 14.2177 20.3166 14.1357 21.1377C14.0924 21.5714 14.0707 21.7886 13.9834 21.958C13.8725 22.1729 13.6877 22.3407 13.4629 22.4297C13.2856 22.4998 13.067 22.5 12.6309 22.5H11.3682C10.9323 22.5 10.7143 22.4998 10.5371 22.4297C10.3124 22.3408 10.1275 22.1737 10.0166 21.959C9.92921 21.7897 9.90669 21.5724 9.86328 21.1387C9.78112 20.3176 9.7401 19.9068 9.56836 19.6816C9.35039 19.396 8.99576 19.2489 8.63965 19.2969C8.35905 19.3349 8.03946 19.5958 7.40137 20.1182C7.0641 20.3942 6.89534 20.5328 6.71387 20.5908C6.48357 20.6643 6.23455 20.6517 6.0127 20.5557C5.83787 20.4799 5.68323 20.3258 5.375 20.0176L4.48242 19.125C4.17412 18.8167 4.0201 18.6622 3.94434 18.4873C3.84826 18.2655 3.8357 18.0165 3.90918 17.7861C3.96713 17.6045 4.10467 17.4353 4.38086 17.0977C4.90323 16.4591 5.16528 16.14 5.20312 15.8594C5.251 15.5033 5.10394 15.1486 4.81836 14.9307C4.59316 14.7589 4.18213 14.7177 3.36133 14.6357C2.92789 14.5925 2.71127 14.5707 2.54199 14.4834C2.32699 14.3726 2.15934 14.1878 2.07031 13.9629C2.00028 13.7858 2 13.5675 2 13.1318V11.8682C2 11.4323 2.00023 11.2143 2.07031 11.0371C2.15921 10.8124 2.32634 10.6275 2.54102 10.5166C2.71035 10.4292 2.9276 10.4067 3.36133 10.3633C4.18237 10.2811 4.59316 10.2402 4.81836 10.0684C5.10372 9.8505 5.25086 9.49645 5.20312 9.14062C5.16537 8.85987 4.90335 8.53991 4.38086 7.90137C4.10503 7.56427 3.96714 7.39531 3.90918 7.21387C3.83569 6.98354 3.84827 6.73456 3.94434 6.5127C4.02008 6.33785 4.17418 6.18324 4.48242 5.875L5.375 4.98242C5.68326 4.67417 5.83783 4.52009 6.0127 4.44434C6.23457 4.34823 6.48352 4.3357 6.71387 4.40918C6.89541 4.46713 7.06487 4.60482 7.40234 4.88086C8.04077 5.40307 8.35992 5.66444 8.64062 5.70215C8.99654 5.74992 9.3505 5.60287 9.56836 5.31738C9.74013 5.09218 9.78112 4.68199 9.86328 3.86133C9.9067 3.42763 9.92924 3.21034 10.0166 3.04102C10.1275 2.82633 10.3124 2.65921 10.5371 2.57031C10.7143 2.50025 10.9323 2.5 11.3682 2.5H12.6318ZM12 8.5C9.79086 8.5 8 10.2909 8 12.5C8 14.7091 9.79086 16.5 12 16.5C14.2091 16.5 16 14.7091 16 12.5C16 10.2909 14.2091 8.5 12 8.5Z" fill="#F9F9F9"/>
</svg>
