<svg width="26" height="26" viewBox="0 0 26 26" fill="none" xmlns="http://www.w3.org/2000/svg">
<path d="M16.2496 6.41406C16.61 6.41406 16.9027 6.56603 17.1656 6.7666C17.417 6.9584 17.6948 7.23721 18.0182 7.56055L18.4391 7.98242C18.7623 8.30564 19.0412 8.58268 19.233 8.83398C19.4336 9.0969 19.5856 9.38961 19.5856 9.75C19.5856 10.1104 19.4336 10.4031 19.233 10.666C19.0412 10.9173 18.7623 11.1944 18.4391 11.5176L10.4948 19.4619C10.3191 19.6376 10.1689 19.7943 9.97815 19.9023C9.78715 20.0105 9.57492 20.0588 9.33362 20.1191L6.34631 20.8662C6.18212 20.9073 6.00365 20.9532 5.8551 20.9678C5.70045 20.9829 5.43946 20.9796 5.2301 20.7705C5.02069 20.5611 5.01672 20.2993 5.03186 20.1445C5.04643 19.996 5.0924 19.8174 5.13342 19.6533L5.88049 16.666C5.94077 16.4249 5.9893 16.2133 6.09729 16.0225C6.20538 15.8316 6.36195 15.6806 6.53772 15.5049L14.4821 7.56055C14.8054 7.23721 15.0832 6.9584 15.3346 6.7666C15.5974 6.56617 15.8895 6.41415 16.2496 6.41406Z" stroke="#F9F9F9"/>
<path d="M13.5416 8.12504L16.7916 5.95837L20.0416 9.20837L17.875 12.4584L13.5416 8.12504Z" fill="#F9F9F9"/>
</svg>
