<svg width="26" height="26" viewBox="0 0 26 26" fill="none" xmlns="http://www.w3.org/2000/svg">
<path d="M10.8333 16.25L10.8333 13" stroke="#F9F9F9" stroke-width="2" stroke-linecap="round"/>
<path d="M15.1667 16.25L15.1667 13" stroke="#F9F9F9" stroke-width="2" stroke-linecap="round"/>
<path d="M3.25 7.58337H22.75V7.58337C21.5827 7.58337 20.999 7.58337 20.5572 7.81953C20.2084 8.006 19.9226 8.29173 19.7362 8.64058C19.5 9.0824 19.5 9.66606 19.5 10.8334V17.6667C19.5 19.5523 19.5 20.4951 18.9142 21.0809C18.3284 21.6667 17.3856 21.6667 15.5 21.6667H10.5C8.61438 21.6667 7.67157 21.6667 7.08579 21.0809C6.5 20.4951 6.5 19.5523 6.5 17.6667V10.8334C6.5 9.66606 6.5 9.0824 6.26384 8.64058C6.07738 8.29173 5.79165 8.006 5.44279 7.81953C5.00097 7.58337 4.41732 7.58337 3.25 7.58337V7.58337Z" stroke="#F9F9F9" stroke-width="2" stroke-linecap="round"/>
<path d="M10.9072 3.65147C11.0307 3.5363 11.3027 3.43452 11.6811 3.36193C12.0595 3.28935 12.5231 3.25 13.0001 3.25C13.477 3.25 13.9407 3.28935 14.3191 3.36193C14.6975 3.43452 14.9695 3.5363 15.0929 3.65147" stroke="#F9F9F9" stroke-width="2" stroke-linecap="round"/>
</svg>
