<svg width="24" height="25" viewBox="0 0 24 25" fill="none" xmlns="http://www.w3.org/2000/svg">
<path d="M12 2.5C13.5 2.5 14.7016 2.5005 15.6787 2.57422C15.5644 2.8607 15.5 3.17271 15.5 3.5V4H15C13.6193 4 12.5 5.11929 12.5 6.5C12.5 7.88071 13.6193 9 15 9H15.5V9.5C15.5 10.8807 16.6193 12 18 12C18.8196 12 19.5441 11.6034 20 10.9941V14.5C20 18.2712 19.9997 20.1566 18.8281 21.3281C17.6566 22.4997 15.7712 22.5 12 22.5C8.22876 22.5 6.34345 22.4997 5.17188 21.3281C4.0003 20.1566 4 18.2712 4 14.5V10.5C4 6.72876 4.0003 4.84345 5.17188 3.67188C6.34345 2.5003 8.22876 2.5 12 2.5ZM8 17.5C7.44772 17.5 7 17.9477 7 18.5C7 19.0523 7.44772 19.5 8 19.5H12C12.5523 19.5 13 19.0523 13 18.5C13 17.9477 12.5523 17.5 12 17.5H8ZM8 14.5C7.44772 14.5 7 14.9477 7 15.5C7 16.0523 7.44772 16.5 8 16.5H14L14.1025 16.4951C14.6067 16.4438 15 16.0177 15 15.5C15 14.9477 14.5523 14.5 14 14.5H8ZM8 11.5C7.44772 11.5 7 11.9477 7 12.5C7 13.0523 7.44772 13.5 8 13.5H12C12.5523 13.5 13 13.0523 13 12.5C13 11.9477 12.5523 11.5 12 11.5H8Z" fill="#D9D9D9"/>
<path d="M18 3.5L18 9.5" stroke="#D9D9D9" stroke-width="2" stroke-linecap="round"/>
<path d="M21 6.5L15 6.5" stroke="#D9D9D9" stroke-width="2" stroke-linecap="round"/>
</svg>
