<svg width="20" height="21" viewBox="0 0 20 21" fill="none" xmlns="http://www.w3.org/2000/svg">
<path d="M4.10749 16.3926C5.27292 17.558 6.75778 18.3517 8.37429 18.6732C9.9908 18.9948 11.6664 18.8297 13.1891 18.199C14.7118 17.5683 16.0133 16.5002 16.929 15.1298C17.8446 13.7594 18.3334 12.1482 18.3334 10.5C18.3334 8.85184 17.8446 7.24068 16.929 5.87027C16.0133 4.49986 14.7118 3.43175 13.1891 2.80102C11.6664 2.17029 9.9908 2.00527 8.37429 2.32681C6.75778 2.64835 5.27292 3.44203 4.10749 4.60746" stroke="#F9F9F9" stroke-width="2"/>
<path d="M12.5 10.5L13.2809 9.87528L13.7806 10.5L13.2809 11.1247L12.5 10.5ZM2.5 11.5C1.94771 11.5 1.5 11.0523 1.5 10.5C1.5 9.94769 1.94771 9.49998 2.5 9.49998V10.5V11.5ZM9.16667 6.33331L9.94754 5.70862L13.2809 9.87528L12.5 10.5L11.7191 11.1247L8.3858 6.95801L9.16667 6.33331ZM12.5 10.5L13.2809 11.1247L9.94754 15.2913L9.16667 14.6666L8.3858 14.0419L11.7191 9.87528L12.5 10.5ZM12.5 10.5V11.5H2.5V10.5V9.49998H12.5V10.5Z" fill="#F9F9F9"/>
</svg>
